<svg id="Layer_1" data-name="Layer 1" xmlns="http://www.w3.org/2000/svg" viewBox="0 0 277.2 252"><defs><style>.cls-1{fill:#00aeef;}.cls-2{fill:#a3daef;}.cls-3,.cls-4,.cls-7{fill:#666;}.cls-3{stroke:#4d4d4d;stroke-width:2px;}.cls-3,.cls-4{stroke-miterlimit:10;}.cls-4{stroke:#fff;stroke-width:4px;}.cls-5{fill:#007eb6;}.cls-6{fill:#4d4d4d;}</style></defs><title>eqchart</title><rect class="cls-1" x="151.33" y="74.74" width="46.24" height="110.2"/><rect class="cls-2" y="109.45" width="46.24" height="61.65"/><line class="cls-3" y1="130.83" x2="197.56" y2="130.83"/><line class="cls-4" x1="150.31" y1="109.45" x2="198.82" y2="109.45"/><path class="cls-5" d="M1.33,9.21h3.3c2.32,0,4.05.8,4.05,3.22s-1.73,3.4-4,3.4H3.19v3.84H1.33Zm3.21,5.13c1.56,0,2.3-.62,2.3-1.91S6,10.69,4.48,10.69H3.19v3.65Z"/><path class="cls-5" d="M10.48,11.81H12l.15,1.4h0a2.68,2.68,0,0,1,2.23-1.59,2,2,0,0,1,.89.16L15,13.38a2.55,2.55,0,0,0-.81-.13c-.62,0-1.38.43-1.85,1.63v4.79H10.48Z"/><path class="cls-5" d="M16.24,9.39a1.14,1.14,0,0,1,2.28,0,1.14,1.14,0,0,1-2.28,0Zm.21,2.42h1.84v7.86H16.45Z"/><path class="cls-5" d="M20.12,15.75a3.89,3.89,0,0,1,3.95-4.13,3.36,3.36,0,0,1,2.3.88l-.9,1.2a2,2,0,0,0-1.31-.58c-1.26,0-2.14,1.05-2.14,2.63s.86,2.61,2.09,2.61a2.57,2.57,0,0,0,1.62-.68l.75,1.22a3.89,3.89,0,0,1-2.57,1C21.77,19.87,20.12,18.36,20.12,15.75Z"/><path class="cls-5" d="M27.13,15.75a3.83,3.83,0,0,1,3.63-4.13c2.12,0,3.24,1.54,3.24,3.73a5,5,0,0,1-.08.9h-5a2.24,2.24,0,0,0,2.32,2.19,3.32,3.32,0,0,0,1.82-.57L33.7,19a4.86,4.86,0,0,1-2.69.86A3.81,3.81,0,0,1,27.13,15.75ZM32.41,15c0-1.21-.54-1.94-1.62-1.94A2,2,0,0,0,28.91,15Z"/><path class="cls-5" d="M39.12,9.21H41v4.2h4.23V9.21h1.86V19.67H45.21V15H41v4.64H39.12Z"/><path class="cls-5" d="M49.36,9.39a1.14,1.14,0,0,1,2.28,0,1.14,1.14,0,0,1-2.28,0Zm.21,2.42h1.84v7.86H49.57Z"/><path class="cls-5" d="M53,18.77l.86-1.17a3.49,3.49,0,0,0,2.17.88c.86,0,1.26-.41,1.26-.94s-.85-1-1.69-1.28c-1-.39-2.21-1-2.21-2.29s1.1-2.35,2.86-2.35a4.22,4.22,0,0,1,2.62.94L58,13.69A2.94,2.94,0,0,0,56.28,13c-.79,0-1.17.38-1.17.87s.8.86,1.65,1.17c1.06.4,2.25.91,2.25,2.38s-1.07,2.44-3,2.44A4.88,4.88,0,0,1,53,18.77Z"/><path class="cls-5" d="M60.61,17V13.28H59.49V11.9l1.22-.09.22-2.14h1.53v2.14h2v1.47h-2V17c0,.93.36,1.38,1.11,1.38a2.45,2.45,0,0,0,.82-.18l.32,1.36a5.15,5.15,0,0,1-1.61.29C61.29,19.87,60.61,18.72,60.61,17Z"/><path class="cls-5" d="M65.34,15.75a3.76,3.76,0,1,1,7.48,0,3.76,3.76,0,1,1-7.48,0Zm5.58,0c0-1.58-.69-2.63-1.84-2.63s-1.84,1.05-1.84,2.63.69,2.61,1.84,2.61S70.92,17.32,70.92,15.75Z"/><path class="cls-5" d="M74.64,11.81h1.51l.14,1.4h.06a2.68,2.68,0,0,1,2.23-1.59,2,2,0,0,1,.89.16l-.32,1.6a2.55,2.55,0,0,0-.81-.13c-.62,0-1.38.43-1.85,1.63v4.79H74.64Z"/><path class="cls-5" d="M80.36,22.74l.34-1.43a2,2,0,0,0,.56.11,1.65,1.65,0,0,0,1.57-1.35l.15-.49-3.09-7.77h1.87l1.35,3.86c.24.69.46,1.47.7,2.22h.06c.2-.73.4-1.51.6-2.22l1.17-3.86h1.78L84.58,20c-.65,1.77-1.48,2.87-3.19,2.87A3,3,0,0,1,80.36,22.74Z"/><path class="cls-5" d="M1.33,28.41h3.3c2.32,0,4.05.8,4.05,3.22S7,35,4.69,35H3.19v3.84H1.33Zm3.21,5.13c1.56,0,2.3-.62,2.3-1.91S6,29.89,4.48,29.89H3.19v3.65Z"/><path class="cls-5" d="M10.48,31H12l.15,1.4h0a2.68,2.68,0,0,1,2.23-1.59,2,2,0,0,1,.89.16L15,32.58a2.55,2.55,0,0,0-.81-.13c-.62,0-1.38.43-1.85,1.63v4.79H10.48Z"/><path class="cls-5" d="M16.24,28.59a1.14,1.14,0,0,1,2.28,0,1.14,1.14,0,0,1-2.28,0ZM16.45,31h1.84v7.86H16.45Z"/><path class="cls-5" d="M20.12,35a3.76,3.76,0,1,1,7.48,0,3.76,3.76,0,1,1-7.48,0Zm5.59,0c0-1.58-.69-2.63-1.85-2.63S22,33.37,22,35s.69,2.61,1.84,2.61S25.71,36.52,25.71,35Z"/><path class="cls-5" d="M29.43,31h1.51l.14,1.4h.05a2.68,2.68,0,0,1,2.23-1.59,2,2,0,0,1,.89.16l-.32,1.6a2.53,2.53,0,0,0-.8-.13c-.63,0-1.39.43-1.86,1.63v4.79H29.43Z"/><path class="cls-5" d="M38.61,37.37h2.28V30.69H39V29.53a6.58,6.58,0,0,0,2.35-.84h1.38v8.68h2v1.5H38.61Z"/><path class="cls-5" d="M46.25,37.81c2.82-2.75,4.6-4.54,4.6-6.09A1.57,1.57,0,0,0,49.17,30a2.79,2.79,0,0,0-2,1.13l-1-1a4.12,4.12,0,0,1,3.25-1.58,3,3,0,0,1,3.22,3.12c0,1.81-1.68,3.68-3.71,5.79.54,0,1.21-.1,1.71-.1h2.49v1.56H46.25Z"/><path class="cls-5" d="M58.21,31h1.51l.14,1.07h0a3.41,3.41,0,0,1,2.42-1.26,2.13,2.13,0,0,1,2.17,1.41A3.56,3.56,0,0,1,67,30.82c1.66,0,2.42,1.14,2.42,3.12v4.93H67.61V34.18c0-1.29-.38-1.78-1.21-1.78a2.43,2.43,0,0,0-1.65,1v5.49H62.91V34.18c0-1.29-.38-1.78-1.21-1.78a2.45,2.45,0,0,0-1.65,1v5.49H58.21Z"/><path class="cls-5" d="M71.18,35a3.76,3.76,0,1,1,7.48,0,3.76,3.76,0,1,1-7.48,0Zm5.58,0c0-1.58-.69-2.63-1.84-2.63s-1.84,1-1.84,2.63.69,2.61,1.84,2.61S76.76,36.52,76.76,35Z"/><path class="cls-5" d="M80.48,31H82l.14,1.07h.06a3.64,3.64,0,0,1,2.58-1.26c1.68,0,2.42,1.14,2.42,3.12v4.93H85.34V34.18c0-1.29-.37-1.78-1.22-1.78a2.46,2.46,0,0,0-1.79,1v5.49H80.48Z"/><path class="cls-5" d="M89.72,36.22V32.48H88.6V31.1L89.81,31,90,28.87h1.53V31h2v1.47h-2v3.74c0,.93.36,1.38,1.12,1.38a2.57,2.57,0,0,0,.82-.18l.31,1.36a5.15,5.15,0,0,1-1.61.29C90.39,39.07,89.72,37.92,89.72,36.22Z"/><path class="cls-5" d="M95.22,27.57h1.84v2.92L97,32a3.61,3.61,0,0,1,2.51-1.19c1.69,0,2.42,1.14,2.42,3.12v4.93h-1.84V34.18c0-1.29-.37-1.78-1.23-1.78a2.48,2.48,0,0,0-1.79,1v5.49H95.22Z"/><path class="cls-5" d="M103.37,38l.85-1.17a3.52,3.52,0,0,0,2.17.88c.86,0,1.26-.41,1.26-.94s-.85-1-1.69-1.28c-1-.39-2.2-1-2.2-2.29s1.1-2.35,2.86-2.35a4.28,4.28,0,0,1,2.61.94l-.85,1.13a2.94,2.94,0,0,0-1.72-.68c-.79,0-1.16.38-1.16.87s.79.86,1.64,1.17c1.07.4,2.26.91,2.26,2.38s-1.07,2.44-3.06,2.44A4.86,4.86,0,0,1,103.37,38Z"/><path class="cls-5" d="M151.64,9.21h3.3c2.33,0,4.05.8,4.05,3.22s-1.73,3.4-4,3.4H153.5v3.84h-1.86Zm3.21,5.13c1.56,0,2.31-.62,2.31-1.91s-.82-1.74-2.37-1.74H153.5v3.65Z"/><path class="cls-5" d="M160.8,11.81h1.51l.14,1.4h.05a2.68,2.68,0,0,1,2.23-1.59,2,2,0,0,1,.89.16l-.32,1.6a2.53,2.53,0,0,0-.8-.13c-.63,0-1.39.43-1.86,1.63v4.79H160.8Z"/><path class="cls-5" d="M166.55,9.39a1.14,1.14,0,1,1,1.14,1A1.07,1.07,0,0,1,166.55,9.39Zm.21,2.42h1.85v7.86h-1.85Z"/><path class="cls-5" d="M170.44,15.75a3.89,3.89,0,0,1,3.94-4.13,3.36,3.36,0,0,1,2.3.88l-.9,1.2a1.93,1.93,0,0,0-1.3-.58c-1.27,0-2.15,1.05-2.15,2.63s.87,2.61,2.09,2.61a2.6,2.6,0,0,0,1.63-.68l.74,1.22a3.88,3.88,0,0,1-2.56,1C172.08,19.87,170.44,18.36,170.44,15.75Z"/><path class="cls-5" d="M177.45,15.75a3.82,3.82,0,0,1,3.62-4.13c2.12,0,3.25,1.54,3.25,3.73a5,5,0,0,1-.08.9h-5a2.24,2.24,0,0,0,2.32,2.19,3.37,3.37,0,0,0,1.83-.57L184,19a4.81,4.81,0,0,1-2.69.86A3.8,3.8,0,0,1,177.45,15.75Zm5.27-.76c0-1.21-.54-1.94-1.61-1.94A2,2,0,0,0,179.23,15Z"/><path class="cls-5" d="M191.55,10.77h-3V9.21h7.9v1.56h-3v8.9h-1.86Z"/><path class="cls-5" d="M196.5,17.56c0-1.68,1.4-2.56,4.62-2.91,0-.84-.36-1.54-1.42-1.54a4.36,4.36,0,0,0-2.21.77l-.68-1.23a6.16,6.16,0,0,1,3.23-1c2,0,2.93,1.21,2.93,3.4v4.65h-1.51l-.14-.87h-.06a3.75,3.75,0,0,1-2.43,1.07A2.21,2.21,0,0,1,196.5,17.56Zm4.62,0V15.8c-2.13.27-2.84.83-2.84,1.62s.47,1,1.13,1A2.47,2.47,0,0,0,201.12,17.57Z"/><path class="cls-5" d="M205.18,11.81h1.51l.14,1.4h0a2.68,2.68,0,0,1,2.24-1.59,2,2,0,0,1,.89.16l-.32,1.6a2.59,2.59,0,0,0-.81-.13c-.63,0-1.38.43-1.86,1.63v4.79h-1.84Z"/><path class="cls-5" d="M210.45,21.1a2,2,0,0,1,1.13-1.68v-.06a1.5,1.5,0,0,1-.71-1.31,1.92,1.92,0,0,1,.87-1.47v-.06a2.65,2.65,0,0,1-1-2.08,2.86,2.86,0,0,1,3.1-2.82,3.67,3.67,0,0,1,1.17.19h2.81v1.37h-1.44a2.05,2.05,0,0,1,.45,1.32c0,1.75-1.32,2.68-3,2.68a3.15,3.15,0,0,1-1.06-.2.9.9,0,0,0-.39.75c0,.44.32.71,1.28.71H215c1.88,0,2.88.58,2.88,1.94,0,1.55-1.63,2.77-4.2,2.77C211.85,23.15,210.45,22.48,210.45,21.1Zm5.69-.42c0-.61-.49-.79-1.39-.79h-1.08a4.11,4.11,0,0,1-1.06-.11,1.32,1.32,0,0,0-.61,1c0,.72.77,1.13,2,1.13S216.14,21.36,216.14,20.68Zm-1-6.24a1.37,1.37,0,1,0-2.72,0,1.38,1.38,0,1,0,2.72,0Z"/><path class="cls-5" d="M218.53,15.75a3.83,3.83,0,0,1,3.63-4.13c2.12,0,3.24,1.54,3.24,3.73a5,5,0,0,1-.08.9h-5a2.24,2.24,0,0,0,2.32,2.19,3.32,3.32,0,0,0,1.82-.57L225.1,19a4.86,4.86,0,0,1-2.69.86A3.81,3.81,0,0,1,218.53,15.75Zm5.28-.76c0-1.21-.54-1.94-1.62-1.94A2,2,0,0,0,220.31,15Z"/><path class="cls-5" d="M227.28,17V13.28h-1.12V11.9l1.21-.09.22-2.14h1.53v2.14h2v1.47h-2V17c0,.93.36,1.38,1.12,1.38a2.51,2.51,0,0,0,.82-.18l.31,1.36a5.15,5.15,0,0,1-1.61.29C228,19.87,227.28,18.72,227.28,17Z"/><path class="cls-5" d="M151.64,28.41h1.91l3.26,5.88,1.08,2.23H158c-.09-1.08-.24-2.4-.24-3.57V28.41h1.77V38.87h-1.91L154.32,33l-1.08-2.22h-.07c.09,1.1.24,2.36.24,3.53v4.58h-1.77Z"/><path class="cls-5" d="M161.46,35a3.84,3.84,0,0,1,3.63-4.13c2.12,0,3.24,1.54,3.24,3.73a5,5,0,0,1-.08.9h-5a2.24,2.24,0,0,0,2.32,2.19,3.32,3.32,0,0,0,1.82-.57l.63,1.14a4.86,4.86,0,0,1-2.69.86A3.81,3.81,0,0,1,161.46,35Zm5.28-.76c0-1.21-.54-1.94-1.62-1.94a2,2,0,0,0-1.88,1.94Z"/><path class="cls-5" d="M171.44,34.78,169.12,31h2L172,32.5c.22.44.47.89.71,1.33h.07c.2-.44.42-.89.62-1.33l.74-1.49H176l-2.32,4,2.49,3.89h-2l-1-1.55c-.26-.46-.53-.94-.8-1.39h-.06c-.24.45-.47.92-.7,1.39l-.83,1.55H169Z"/><path class="cls-5" d="M177.46,36.22V32.48h-1.12V31.1l1.21-.09.22-2.14h1.53V31h2v1.47h-2v3.74c0,.93.36,1.38,1.11,1.38a2.45,2.45,0,0,0,.82-.18l.32,1.36a5.15,5.15,0,0,1-1.61.29C178.13,39.07,177.46,37.92,177.46,36.22Z"/><path class="cls-5" d="M186.17,37.37h2.28V30.69h-1.88V29.53a6.65,6.65,0,0,0,2.35-.84h1.37v8.68h2v1.5h-6.13Z"/><path class="cls-5" d="M193.81,37.81c2.82-2.75,4.6-4.54,4.6-6.09A1.57,1.57,0,0,0,196.73,30a2.81,2.81,0,0,0-2,1.13l-1-1A4.13,4.13,0,0,1,197,28.5a3,3,0,0,1,3.22,3.12c0,1.81-1.68,3.68-3.71,5.79.54,0,1.21-.1,1.71-.1h2.49v1.56h-6.87Z"/><path class="cls-5" d="M205.77,31h1.51l.14,1.07h.06a3.37,3.37,0,0,1,2.41-1.26,2.13,2.13,0,0,1,2.17,1.41,3.56,3.56,0,0,1,2.53-1.41c1.66,0,2.43,1.14,2.43,3.12v4.93h-1.85V34.18c0-1.29-.38-1.78-1.21-1.78a2.4,2.4,0,0,0-1.64,1v5.49h-1.85V34.18c0-1.29-.38-1.78-1.21-1.78a2.46,2.46,0,0,0-1.64,1v5.49h-1.85Z"/><path class="cls-5" d="M218.74,35a3.76,3.76,0,1,1,7.48,0,3.76,3.76,0,1,1-7.48,0Zm5.58,0c0-1.58-.69-2.63-1.84-2.63s-1.84,1-1.84,2.63.69,2.61,1.84,2.61S224.32,36.52,224.32,35Z"/><path class="cls-5" d="M228,31h1.51l.15,1.07h.05a3.64,3.64,0,0,1,2.58-1.26c1.68,0,2.42,1.14,2.42,3.12v4.93H232.9V34.18c0-1.29-.37-1.78-1.22-1.78a2.46,2.46,0,0,0-1.79,1v5.49H228Z"/><path class="cls-5" d="M237.28,36.22V32.48h-1.12V31.1l1.22-.09.21-2.14h1.53V31h2v1.47h-2v3.74c0,.93.36,1.38,1.12,1.38a2.45,2.45,0,0,0,.82-.18l.31,1.36a5.15,5.15,0,0,1-1.61.29C238,39.07,237.28,37.92,237.28,36.22Z"/><path class="cls-5" d="M242.78,27.57h1.84v2.92L244.55,32a3.63,3.63,0,0,1,2.51-1.19c1.69,0,2.42,1.14,2.42,3.12v4.93h-1.84V34.18c0-1.29-.37-1.78-1.22-1.78a2.48,2.48,0,0,0-1.8,1v5.49h-1.84Z"/><path class="cls-5" d="M250.93,38l.86-1.17a3.47,3.47,0,0,0,2.17.88c.85,0,1.26-.41,1.26-.94s-.85-1-1.69-1.28c-1-.39-2.21-1-2.21-2.29s1.1-2.35,2.86-2.35a4.28,4.28,0,0,1,2.61.94L256,32.89a3,3,0,0,0-1.73-.68c-.79,0-1.16.38-1.16.87s.79.86,1.64,1.17c1.07.4,2.26.91,2.26,2.38s-1.07,2.44-3.06,2.44A4.88,4.88,0,0,1,250.93,38Z"/><path class="cls-6" d="M1.08,95.15H2.59v3.42H6V95.15H7.54v8.5H6V99.88H2.59v3.77H1.08Z"/><path class="cls-6" d="M9.4,95.3a.86.86,0,0,1,.92-.85.85.85,0,1,1,0,1.7A.86.86,0,0,1,9.4,95.3Zm.17,2h1.5v6.38H9.57Z"/><path class="cls-6" d="M12.54,104.81a1.61,1.61,0,0,1,.92-1.36v0a1.22,1.22,0,0,1-.58-1.07,1.55,1.55,0,0,1,.71-1.19v0a2.11,2.11,0,0,1-.84-1.69,2.32,2.32,0,0,1,2.52-2.29,2.74,2.74,0,0,1,.95.16H18.5v1.11H17.33a1.66,1.66,0,0,1,.37,1.07,2.18,2.18,0,0,1-2.43,2.18,2.44,2.44,0,0,1-.86-.17.72.72,0,0,0-.32.61c0,.36.26.58,1,.58h1.14c1.52,0,2.33.47,2.33,1.57,0,1.26-1.32,2.26-3.4,2.26C13.67,106.48,12.54,105.93,12.54,104.81Zm4.62-.34c0-.5-.4-.64-1.13-.64h-.87a3.63,3.63,0,0,1-.87-.09,1.07,1.07,0,0,0-.49.84c0,.59.62.92,1.63.92S17.16,105,17.16,104.47Zm-.78-5.07a1.12,1.12,0,1,0-2.22,0,1.12,1.12,0,1,0,2.22,0Z"/><path class="cls-6" d="M19.74,94.47h1.49v2.38l-.06,1.23a2.94,2.94,0,0,1,2-1c1.36,0,2,.93,2,2.54v4h-1.5V99.84c0-1-.3-1.44-1-1.44a2,2,0,0,0-1.46.79v4.46H19.74Z"/><path class="cls-6" d="M35.12,98.49c0-.48.05-1.24.07-1.72h0c-.21.43-.44.84-.68,1.29L33,100.37h4.61v1.16H31.48v-1l3.27-5.13h1.78v8.27H35.12Z"/><path class="cls-6" d="M42.39,96.65H38.48V95.38H44v.92c-1.94,2.4-2.27,4.13-2.42,7.35H40.09A11.61,11.61,0,0,1,42.39,96.65Z"/><path class="cls-6" d="M45.4,102.8a1,1,0,1,1,1,1A1,1,0,0,1,45.4,102.8Z"/><path class="cls-6" d="M48.73,99.77c0-3.21,1.55-4.55,3.25-4.55a3,3,0,0,1,2.21.94l-.81.91a1.81,1.81,0,0,0-1.32-.63c-1.07,0-2,.84-2,3.33,0,2,.65,2.89,1.59,2.89.69,0,1.24-.55,1.24-1.57s-.48-1.47-1.3-1.47a1.87,1.87,0,0,0-1.53,1L50,99.6a2.5,2.5,0,0,1,1.87-1.06,2.26,2.26,0,0,1,2.41,2.55,2.58,2.58,0,0,1-2.6,2.72C50.11,103.81,48.73,102.55,48.73,99.77Z"/><path class="cls-6" d="M59.3,96.65H55.39V95.38h5.55v.92c-1.94,2.4-2.27,4.13-2.42,7.35H57A11.68,11.68,0,0,1,59.3,96.65Z"/><path class="cls-6" d="M152.37,64.82V60.05h1.5v4.89c0,1.85.7,2.46,1.73,2.46s1.75-.61,1.75-2.46V60.05h1.45v4.77c0,2.8-1.23,3.89-3.2,3.89S152.37,67.62,152.37,64.82Z"/><path class="cls-6" d="M160.79,62.17H162l.11.68h.05A3.08,3.08,0,0,1,164.1,62c1.6,0,2.51,1.28,2.51,3.25,0,2.19-1.3,3.45-2.72,3.45a2.6,2.6,0,0,1-1.65-.7l0,1.06v2h-1.5Zm4.28,3.11c0-1.28-.41-2-1.39-2a2,2,0,0,0-1.39.72v3a2,2,0,0,0,1.28.53C164.42,67.47,165.07,66.72,165.07,65.28Z"/><path class="cls-6" d="M167.44,67.82l.7-.95a2.8,2.8,0,0,0,1.76.71c.7,0,1-.33,1-.76s-.69-.78-1.37-1c-.84-.31-1.79-.79-1.79-1.86s.89-1.91,2.32-1.91a3.4,3.4,0,0,1,2.12.77l-.68.92a2.39,2.39,0,0,0-1.4-.56c-.65,0-1,.31-1,.71s.65.69,1.34.95c.86.32,1.83.74,1.83,1.93s-.87,2-2.48,2A4,4,0,0,1,167.44,67.82Z"/><path class="cls-6" d="M173.5,60.2a.93.93,0,1,1,.93.85A.86.86,0,0,1,173.5,60.2Zm.18,2h1.49v6.38h-1.49Z"/><path class="cls-6" d="M176.69,65.37c0-2.08,1.31-3.36,2.71-3.36a2.34,2.34,0,0,1,1.67.7l-.06-1V59.37h1.5v9.18h-1.23l-.11-.69h0a2.71,2.71,0,0,1-1.82.85C177.72,68.71,176.69,67.47,176.69,65.37ZM181,66.75v-3a1.86,1.86,0,0,0-1.3-.53c-.81,0-1.48.77-1.48,2.1s.53,2.12,1.45,2.12A1.68,1.68,0,0,0,181,66.75Z"/><path class="cls-6" d="M184,65.37A3.11,3.11,0,0,1,186.94,62c1.72,0,2.63,1.25,2.63,3a4.34,4.34,0,0,1-.06.73h-4.06a1.83,1.83,0,0,0,1.89,1.78,2.75,2.75,0,0,0,1.48-.46l.51.93a4,4,0,0,1-2.19.69A3.09,3.09,0,0,1,184,65.37Zm4.29-.62c0-1-.44-1.58-1.31-1.58a1.6,1.6,0,0,0-1.53,1.58Z"/><path class="cls-6" d="M195.56,67.56l.7-1a2.69,2.69,0,0,0,1.93.89,1.5,1.5,0,0,0,1.6-1.59,1.43,1.43,0,0,0-1.53-1.54,2.16,2.16,0,0,0-1.32.46l-.71-.46.25-4.08h4.42v1.27h-3.12l-.18,2a2.35,2.35,0,0,1,1.1-.26,2.4,2.4,0,0,1,2.6,2.58,2.79,2.79,0,0,1-2.92,2.85A3.8,3.8,0,0,1,195.56,67.56Z"/><path class="cls-6" d="M202.46,66.44A2.45,2.45,0,0,1,204,64.31v0a2.36,2.36,0,0,1-1.14-1.93,2.26,2.26,0,0,1,2.5-2.21,2.21,2.21,0,0,1,2.43,2.24,2.48,2.48,0,0,1-1.11,1.9v0a2.4,2.4,0,0,1,1.43,2.15c0,1.27-1.12,2.25-2.8,2.25S202.46,67.77,202.46,66.44Zm4.19,0c0-.9-.87-1.23-2-1.68a2,2,0,0,0-.89,1.55,1.4,1.4,0,0,0,1.52,1.36A1.22,1.22,0,0,0,206.65,66.41Zm-.16-4a1.16,1.16,0,0,0-1.21-1.26,1.07,1.07,0,0,0-1.13,1.14c0,.82.74,1.19,1.66,1.56A2,2,0,0,0,206.49,62.45Z"/><path class="cls-6" d="M209.41,67.7a1,1,0,1,1,1,1A1,1,0,0,1,209.41,67.7Z"/><path class="cls-6" d="M212.69,64.38c0-2.79,1.09-4.26,2.81-4.26s2.81,1.47,2.81,4.26-1.09,4.33-2.81,4.33S212.69,67.18,212.69,64.38Zm4.19,0c0-2.34-.58-3.08-1.38-3.08s-1.38.74-1.38,3.08.58,3.15,1.38,3.15S216.88,66.72,216.88,64.38Z"/><path class="cls-6" d="M219.36,64.38c0-2.79,1.09-4.26,2.81-4.26S225,61.59,225,64.38s-1.1,4.33-2.81,4.33S219.36,67.18,219.36,64.38Zm4.19,0c0-2.34-.58-3.08-1.38-3.08s-1.38.74-1.38,3.08.58,3.15,1.38,3.15S223.55,66.72,223.55,64.38Z"/><path class="cls-6" d="M152.41,190.52h2.27c2.6,0,4.14,1.4,4.14,4.22s-1.54,4.28-4.07,4.28h-2.34Zm2.17,7.28c1.71,0,2.69-1,2.69-3.06s-1-3-2.69-3h-.66v6.06Z"/><path class="cls-6" d="M160,195.83a3.05,3.05,0,1,1,3,3.35A3.1,3.1,0,0,1,160,195.83Zm4.54,0c0-1.28-.57-2.13-1.5-2.13s-1.5.85-1.5,2.13.56,2.13,1.5,2.13S164.52,197.11,164.52,195.83Z"/><path class="cls-6" d="M166.82,192.64h1.5l.78,3.31c.12.62.22,1.22.33,1.84h0c.13-.62.25-1.24.41-1.84l.84-3.31h1.35l.86,3.31c.15.62.28,1.22.42,1.84h0c.13-.62.22-1.22.34-1.84l.77-3.31h1.4L174.3,199h-1.78l-.75-3c-.13-.6-.25-1.18-.38-1.85h0c-.13.67-.24,1.26-.38,1.86l-.73,3h-1.72Z"/><path class="cls-6" d="M177.19,192.64h1.22l.12.86h0a3,3,0,0,1,2.09-1c1.37,0,2,.93,2,2.54v4h-1.5v-3.81c0-1.05-.3-1.45-1-1.45a2,2,0,0,0-1.46.8V199h-1.49Z"/><path class="cls-6" d="M183.83,198.29l.7-.95a2.8,2.8,0,0,0,1.76.71c.7,0,1-.33,1-.77s-.69-.77-1.37-1c-.84-.31-1.79-.8-1.79-1.86s.89-1.91,2.32-1.91a3.45,3.45,0,0,1,2.12.76l-.68.92a2.44,2.44,0,0,0-1.4-.55c-.64,0-.95.31-.95.71s.65.69,1.34,1c.86.32,1.83.74,1.83,1.93s-.87,2-2.48,2A4,4,0,0,1,183.83,198.29Z"/><path class="cls-6" d="M189.9,190.67a.86.86,0,0,1,.92-.85.85.85,0,1,1-.92.85Zm.17,2h1.5V199h-1.5Z"/><path class="cls-6" d="M193.08,195.83c0-2.08,1.31-3.35,2.71-3.35a2.34,2.34,0,0,1,1.67.7l-.06-1v-2.31h1.5V199h-1.22l-.12-.69h0a2.69,2.69,0,0,1-1.82.85C194.11,199.18,193.08,197.94,193.08,195.83Zm4.32,1.39v-3a1.86,1.86,0,0,0-1.3-.53c-.81,0-1.48.77-1.48,2.1s.53,2.12,1.45,2.12A1.68,1.68,0,0,0,197.4,197.22Z"/><path class="cls-6" d="M200.38,195.83a3.11,3.11,0,0,1,3-3.35c1.72,0,2.63,1.25,2.63,3a4.34,4.34,0,0,1-.06.73h-4.05a1.81,1.81,0,0,0,1.88,1.78,2.75,2.75,0,0,0,1.48-.46l.51.93a4,4,0,0,1-2.19.69A3.09,3.09,0,0,1,200.38,195.83Zm4.29-.61c0-1-.44-1.58-1.31-1.58a1.61,1.61,0,0,0-1.53,1.58Z"/><path class="cls-6" d="M212.14,198.15c2.3-2.23,3.74-3.68,3.74-4.94a1.28,1.28,0,0,0-1.36-1.43,2.29,2.29,0,0,0-1.62.92l-.83-.82a3.37,3.37,0,0,1,2.64-1.29,2.43,2.43,0,0,1,2.62,2.54c0,1.47-1.36,3-3,4.71a13.31,13.31,0,0,1,1.39-.09h2V199h-5.59Z"/><path class="cls-6" d="M218.62,198l.7-1a2.75,2.75,0,0,0,1.93.89,1.5,1.5,0,0,0,1.6-1.59,1.43,1.43,0,0,0-1.52-1.55,2.18,2.18,0,0,0-1.33.47l-.71-.46.25-4.08H224V192h-3.12l-.17,2a2.28,2.28,0,0,1,1.09-.26,2.4,2.4,0,0,1,2.6,2.58,2.79,2.79,0,0,1-2.92,2.85A3.8,3.8,0,0,1,218.62,198Z"/><path class="cls-6" d="M225.8,198.17a1,1,0,1,1,1,1A1,1,0,0,1,225.8,198.17Z"/><path class="cls-6" d="M229.08,194.85c0-2.79,1.09-4.26,2.81-4.26s2.81,1.47,2.81,4.26-1.09,4.33-2.81,4.33S229.08,197.65,229.08,194.85Zm4.19,0c0-2.34-.58-3.08-1.38-3.08s-1.38.74-1.38,3.08.58,3.15,1.38,3.15S233.27,197.19,233.27,194.85Z"/><path class="cls-6" d="M235.75,194.85c0-2.79,1.09-4.26,2.81-4.26s2.81,1.47,2.81,4.26-1.09,4.33-2.81,4.33S235.75,197.65,235.75,194.85Zm4.19,0c0-2.34-.58-3.08-1.38-3.08s-1.38.74-1.38,3.08.58,3.15,1.38,3.15S239.94,197.19,239.94,194.85Z"/><path class="cls-6" d="M61.56,121.49c0-.48,0-1.24.07-1.72h-.06c-.2.43-.44.84-.67,1.29l-1.51,2.3H64v1.16H57.91v-1l3.28-5.13H63v8.27h-1.4Z"/><path class="cls-6" d="M65.3,125.43h1.86V120H65.63v-.94a5.27,5.27,0,0,0,1.91-.68h1.11v7.05h1.63v1.22h-5Z"/><path class="cls-6" d="M71.83,125.8a1,1,0,1,1,1,1A1,1,0,0,1,71.83,125.8Z"/><path class="cls-6" d="M75.08,125.78c2.3-2.23,3.74-3.68,3.74-4.94a1.28,1.28,0,0,0-1.36-1.43,2.29,2.29,0,0,0-1.62.92l-.83-.82a3.38,3.38,0,0,1,2.64-1.29,2.43,2.43,0,0,1,2.62,2.54c0,1.47-1.36,3-3,4.71a13.49,13.49,0,0,1,1.39-.09h2v1.27H75.08Z"/><path class="cls-6" d="M81.57,125.64l.71-1a2.74,2.74,0,0,0,2,.91c.9,0,1.53-.47,1.53-1.25s-.55-1.41-2.43-1.41v-1.09c1.62,0,2.15-.56,2.15-1.32a1.08,1.08,0,0,0-1.22-1.11,2.4,2.4,0,0,0-1.66.78l-.77-.92a3.62,3.62,0,0,1,2.49-1c1.58,0,2.67.79,2.67,2.19a2,2,0,0,1-1.44,1.9v0a2.11,2.11,0,0,1,1.72,2.06c0,1.51-1.32,2.39-2.91,2.39A3.58,3.58,0,0,1,81.57,125.64Z"/><path class="cls-6" d="M93.76,122.43c0-2.78,1.74-4.44,3.89-4.44a3.35,3.35,0,0,1,2.45,1.08l-.8,1a2.23,2.23,0,0,0-1.62-.74c-1.38,0-2.37,1.17-2.37,3.08s.91,3.12,2.34,3.12a2.38,2.38,0,0,0,1.81-.88l.81.95a3.4,3.4,0,0,1-2.68,1.24C95.45,126.81,93.76,125.24,93.76,122.43Z"/><path class="cls-6" d="M101.36,124.27v-4h1.5v3.81c0,1,.3,1.44,1,1.44s.93-.26,1.42-.88v-4.37h1.49v6.38h-1.22l-.12-.94h0a2.59,2.59,0,0,1-2,1.1C102,126.81,101.36,125.88,101.36,124.27Z"/><path class="cls-6" d="M108.66,120.27h1.23l.11,1.13h0a2.19,2.19,0,0,1,1.82-1.29,1.6,1.6,0,0,1,.72.13l-.26,1.3a2.21,2.21,0,0,0-.65-.1c-.51,0-1.13.34-1.51,1.32v3.89h-1.5Z"/><path class="cls-6" d="M113.51,120.27h1.23l.11,1.13h0a2.18,2.18,0,0,1,1.82-1.29,1.6,1.6,0,0,1,.72.13l-.26,1.3a2.21,2.21,0,0,0-.65-.1c-.51,0-1.13.34-1.51,1.32v3.89h-1.5Z"/><path class="cls-6" d="M117.81,123.46a3.11,3.11,0,0,1,2.94-3.35c1.73,0,2.64,1.25,2.64,3a3.39,3.39,0,0,1-.07.73h-4a1.81,1.81,0,0,0,1.88,1.78,2.69,2.69,0,0,0,1.48-.46l.51.93a4,4,0,0,1-2.19.69A3.08,3.08,0,0,1,117.81,123.46Zm4.28-.61c0-1-.43-1.58-1.31-1.58a1.61,1.61,0,0,0-1.53,1.58Z"/><path class="cls-6" d="M124.82,120.27h1.23l.11.86h0a3,3,0,0,1,2.1-1c1.37,0,2,.93,2,2.54v4h-1.49v-3.81c0-1-.3-1.45-1-1.45a2,2,0,0,0-1.45.8v4.46h-1.5Z"/><path class="cls-6" d="M132.32,124.5v-3h-.91v-1.13l1-.06.18-1.75h1.24v1.75h1.63v1.19h-1.63v3c0,.75.29,1.12.91,1.12a2.11,2.11,0,0,0,.66-.15l.26,1.1a4,4,0,0,1-1.31.24C132.87,126.81,132.32,125.88,132.32,124.5Z"/><path class="cls-7" d="M206,113.62a.46.46,0,0,1-.36.16.49.49,0,0,1-.37-.16l-4.16-4.16a.52.52,0,0,1-.16-.37.5.5,0,0,1,.16-.36l4.16-4.17a.51.51,0,0,1,.37-.15.49.49,0,0,1,.36.15l.5.47a.49.49,0,0,1,.14.37.54.54,0,0,1-.16.36l-2.58,2.47h6.16a.51.51,0,0,1,.52.52v.69a.49.49,0,0,1-.15.36.5.5,0,0,1-.37.15h-6.16l2.58,2.47a.55.55,0,0,1,.16.37.48.48,0,0,1-.14.36Z"/><path class="cls-6" d="M217.67,106h-2.46v-1.27h6.42V106h-2.46v7.24h-1.5Z"/><path class="cls-6" d="M221.69,111.5c0-1.37,1.13-2.08,3.75-2.36,0-.69-.29-1.26-1.16-1.26a3.55,3.55,0,0,0-1.79.63l-.55-1a5,5,0,0,1,2.62-.84c1.6,0,2.38,1,2.38,2.77v3.78h-1.23l-.11-.71h0a3.08,3.08,0,0,1-2,.86A1.79,1.79,0,0,1,221.69,111.5Zm3.75,0v-1.44c-1.73.22-2.31.67-2.31,1.32s.39.81.93.81A2,2,0,0,0,225.44,111.51Z"/><path class="cls-6" d="M228.74,106.83H230l.11,1.14h0a2.2,2.2,0,0,1,1.82-1.3,1.59,1.59,0,0,1,.72.14l-.26,1.29a2.21,2.21,0,0,0-.65-.1c-.51,0-1.13.35-1.51,1.32v3.9h-1.5Z"/><path class="cls-6" d="M233,114.38a1.66,1.66,0,0,1,.92-1.37V113a1.21,1.21,0,0,1-.57-1.06,1.52,1.52,0,0,1,.7-1.19v-.06a2.14,2.14,0,0,1-.84-1.68,2.33,2.33,0,0,1,2.52-2.3,2.94,2.94,0,0,1,.95.16H239v1.11h-1.16a1.68,1.68,0,0,1,.36,1.08,2.18,2.18,0,0,1-2.43,2.17,2.23,2.23,0,0,1-.86-.17.76.76,0,0,0-.31.62c0,.35.26.57,1,.57h1.14c1.52,0,2.34.48,2.34,1.58,0,1.26-1.33,2.25-3.41,2.25C234.16,116,233,115.49,233,114.38Zm4.62-.35c0-.49-.39-.64-1.13-.64h-.87a3.68,3.68,0,0,1-.87-.08,1.05,1.05,0,0,0-.49.84c0,.58.63.92,1.63.92S237.64,114.58,237.64,114Zm-.78-5.06a1.12,1.12,0,1,0-2.22,0,1.12,1.12,0,1,0,2.22,0Z"/><path class="cls-6" d="M239.59,110a3.11,3.11,0,0,1,2.94-3.36c1.73,0,2.64,1.25,2.64,3a3.28,3.28,0,0,1-.07.72h-4a1.81,1.81,0,0,0,1.88,1.78,2.75,2.75,0,0,0,1.49-.46l.5.93a3.92,3.92,0,0,1-2.18.69A3.08,3.08,0,0,1,239.59,110Zm4.29-.61c0-1-.44-1.59-1.32-1.59a1.6,1.6,0,0,0-1.52,1.59Z"/><path class="cls-6" d="M246.7,111.06v-3h-.91V106.9l1-.07.18-1.74h1.24v1.74h1.63V108h-1.63v3c0,.75.29,1.12.91,1.12a2,2,0,0,0,.66-.14l.26,1.1a4.28,4.28,0,0,1-1.31.23C247.24,113.37,246.7,112.44,246.7,111.06Z"/><path class="cls-6" d="M217.83,122.06c0-.48,0-1.24.07-1.72h-.05c-.21.43-.45.84-.68,1.28l-1.5,2.31h4.6v1.16h-6.09v-1l3.28-5.13h1.77v8.28h-1.4Z"/><path class="cls-6" d="M225.1,120.21h-3.91v-1.27h5.55v.92c-1.94,2.41-2.28,4.13-2.42,7.36H222.8A11.55,11.55,0,0,1,225.1,120.21Z"/><path class="cls-6" d="M228.11,126.36a1,1,0,1,1,1,1A1,1,0,0,1,228.11,126.36Z"/><path class="cls-6" d="M231.38,123.05c0-2.8,1.1-4.26,2.81-4.26s2.81,1.47,2.81,4.26-1.09,4.32-2.81,4.32S231.38,125.84,231.38,123.05Zm4.19,0c0-2.34-.58-3.09-1.38-3.09s-1.38.75-1.38,3.09.58,3.15,1.38,3.15S235.57,125.39,235.57,123.05Z"/><path class="cls-6" d="M238.05,123.05c0-2.8,1.09-4.26,2.81-4.26s2.81,1.47,2.81,4.26-1.09,4.32-2.81,4.32S238.05,125.84,238.05,123.05Zm4.19,0c0-2.34-.58-3.09-1.38-3.09s-1.38.75-1.38,3.09.58,3.15,1.38,3.15S242.24,125.39,242.24,123.05Z"/><path class="cls-6" d="M1.08,177.15H2.59v7.24H6.12v1.27h-5Z"/><path class="cls-6" d="M6.89,182.47a3,3,0,1,1,3,3.34A3.09,3.09,0,0,1,6.89,182.47Zm4.53,0c0-1.28-.56-2.13-1.5-2.13s-1.49.85-1.49,2.13.56,2.12,1.49,2.12S11.42,183.75,11.42,182.47Z"/><path class="cls-6" d="M13.73,179.27h1.5l.78,3.31c.12.62.21,1.22.33,1.84h.05c.13-.62.25-1.23.41-1.84l.83-3.31H19l.85,3.31c.16.62.28,1.22.42,1.84h.06c.12-.62.22-1.22.34-1.84l.76-3.31h1.4l-1.61,6.39H19.43l-.75-3c-.14-.6-.25-1.19-.39-1.86h-.05c-.12.67-.23,1.27-.38,1.87l-.72,3H15.41Z"/><path class="cls-6" d="M28.84,184.79c2.29-2.23,3.74-3.68,3.74-4.95a1.28,1.28,0,0,0-1.37-1.42,2.27,2.27,0,0,0-1.61.91l-.83-.82a3.34,3.34,0,0,1,2.64-1.28A2.42,2.42,0,0,1,34,179.76c0,1.48-1.36,3-3,4.71.44,0,1-.08,1.39-.08h2v1.27H28.84Z"/><path class="cls-6" d="M35.62,184.88l.81-.91a1.86,1.86,0,0,0,1.32.62c1.08,0,2-.84,2-3.32,0-2.05-.65-2.9-1.59-2.9-.69,0-1.24.56-1.24,1.57s.48,1.48,1.31,1.48a1.87,1.87,0,0,0,1.52-1l.07,1.05a2.5,2.5,0,0,1-1.87,1.06,2.27,2.27,0,0,1-2.41-2.56,2.57,2.57,0,0,1,2.6-2.71c1.61,0,3,1.25,3,4,0,3.21-1.55,4.54-3.25,4.54A3,3,0,0,1,35.62,184.88Z"/><path class="cls-6" d="M42.5,184.8a1,1,0,1,1,1.93,0,1,1,0,1,1-1.93,0Z"/><path class="cls-6" d="M45.75,184.79c2.29-2.23,3.74-3.68,3.74-4.95a1.28,1.28,0,0,0-1.37-1.42,2.27,2.27,0,0,0-1.61.91l-.83-.82a3.34,3.34,0,0,1,2.64-1.28,2.42,2.42,0,0,1,2.62,2.53c0,1.48-1.37,3-3,4.71.43,0,1-.08,1.38-.08h2v1.27H45.75Z"/><path class="cls-6" d="M55.81,180.5c0-.48,0-1.24.06-1.72h0c-.21.43-.44.84-.67,1.28l-1.51,2.31h4.61v1.16H52.16v-1l3.28-5.13h1.77v8.28h-1.4Z"/><path class="cls-5" d="M161.09,229.09c0-3,1.75-4.77,4.08-4.77a3.45,3.45,0,0,1,2.53,1.13l-.64.77a2.52,2.52,0,0,0-1.87-.87c-1.74,0-2.89,1.42-2.89,3.71s1.1,3.76,2.84,3.76a2.74,2.74,0,0,0,2.13-1l.65.73a3.54,3.54,0,0,1-2.83,1.33C162.8,233.85,161.09,232.08,161.09,229.09Z"/><path class="cls-5" d="M169,230.29c0-2.28,1.49-3.59,3.16-3.59s3.15,1.31,3.15,3.59a3.18,3.18,0,1,1-6.31,0Zm5.12,0c0-1.56-.79-2.63-2-2.63s-2,1.07-2,2.63.8,2.6,2,2.6S174.12,231.85,174.12,230.29Z"/><path class="cls-5" d="M177.1,226.87h1l.1,1h0a3.06,3.06,0,0,1,2.12-1.16,1.8,1.8,0,0,1,1.88,1.3,3.25,3.25,0,0,1,2.25-1.3c1.4,0,2.07.93,2.07,2.67v4.31h-1.15v-4.16c0-1.27-.4-1.81-1.27-1.81a2.45,2.45,0,0,0-1.7,1v4.93h-1.16v-4.16c0-1.27-.4-1.81-1.26-1.81a2.52,2.52,0,0,0-1.71,1v4.93H177.1Z"/><path class="cls-5" d="M188.7,226.87h1l.1.79h0a3.61,3.61,0,0,1,2.17-1c1.76,0,2.7,1.37,2.7,3.47,0,2.32-1.39,3.68-2.95,3.68a3.13,3.13,0,0,1-1.89-.79l0,1.19v2.3H188.7Zm4.77,3.31c0-1.5-.51-2.51-1.79-2.51a2.8,2.8,0,0,0-1.82.93v3.57a2.62,2.62,0,0,0,1.65.71C192.64,232.88,193.47,231.87,193.47,230.18Z"/><path class="cls-5" d="M195.86,231.91c0-1.48,1.28-2.22,4.18-2.54,0-.87-.3-1.72-1.41-1.72a3.79,3.79,0,0,0-2,.73l-.45-.79a5,5,0,0,1,2.67-.89c1.67,0,2.37,1.11,2.37,2.8v4.18h-.95l-.1-.81h0a3.6,3.6,0,0,1-2.25,1A1.85,1.85,0,0,1,195.86,231.91ZM200,232v-1.89c-2.28.27-3.06.83-3.06,1.7s.53,1.09,1.2,1.09A2.82,2.82,0,0,0,200,232Z"/><path class="cls-5" d="M203.33,226.87h.95l.1,1h0a3.29,3.29,0,0,1,2.28-1.15c1.44,0,2.08.93,2.08,2.67v4.31h-1.15v-4.16c0-1.27-.38-1.81-1.28-1.81a2.59,2.59,0,0,0-1.87,1v4.93h-1.15Z"/><path class="cls-5" d="M210.31,236.48l.22-.92a2.09,2.09,0,0,0,.52.1c.77,0,1.26-.62,1.54-1.46l.15-.5L210,226.87h1.19l1.39,3.77c.21.59.44,1.29.66,1.92h.06c.19-.62.38-1.32.57-1.92l1.21-3.77h1.13l-2.56,7.37c-.49,1.35-1.19,2.38-2.55,2.38A2.29,2.29,0,0,1,210.31,236.48Z"/><path class="cls-5" d="M220.33,226.87h.95l.1.79h0a3.58,3.58,0,0,1,2.17-1c1.76,0,2.7,1.37,2.7,3.47,0,2.32-1.4,3.68-2.95,3.68a3.1,3.1,0,0,1-1.89-.79l0,1.19v2.3h-1.15Zm4.77,3.31c0-1.5-.52-2.51-1.8-2.51a2.8,2.8,0,0,0-1.82.93v3.57a2.66,2.66,0,0,0,1.66.71C224.27,232.88,225.1,231.87,225.1,230.18Z"/><path class="cls-5" d="M227.48,231.91c0-1.48,1.28-2.22,4.18-2.54,0-.87-.29-1.72-1.4-1.72a3.79,3.79,0,0,0-2,.73l-.45-.79a5,5,0,0,1,2.67-.89c1.66,0,2.37,1.11,2.37,2.8v4.18h-1l-.09-.81h0a3.62,3.62,0,0,1-2.25,1A1.86,1.86,0,0,1,227.48,231.91Zm4.18.11v-1.89c-2.28.27-3,.83-3,1.7s.52,1.09,1.19,1.09A2.8,2.8,0,0,0,231.66,232Z"/><path class="cls-5" d="M234.44,235a1.92,1.92,0,0,1,1-1.54v-.06a1.24,1.24,0,0,1-.61-1.11,1.65,1.65,0,0,1,.75-1.27v0a2.39,2.39,0,0,1-.88-1.83,2.42,2.42,0,0,1,2.55-2.43,2.8,2.8,0,0,1,1,.17h2.38v.89h-1.4a2,2,0,0,1,.56,1.4,2.33,2.33,0,0,1-2.5,2.36,2.4,2.4,0,0,1-1-.23,1,1,0,0,0-.43.8c0,.44.28.74,1.19.74h1.32c1.59,0,2.38.5,2.38,1.63s-1.34,2.35-3.44,2.35C235.59,236.81,234.44,236.16,234.44,235Zm5.13-.36c0-.63-.47-.84-1.37-.84H237a4.11,4.11,0,0,1-.89-.1,1.42,1.42,0,0,0-.69,1.14c0,.73.73,1.19,2,1.19S239.57,235.34,239.57,234.63Zm-.87-5.5a1.45,1.45,0,1,0-2.89,0,1.45,1.45,0,1,0,2.89,0Z"/><path class="cls-5" d="M241.31,230.29a3.29,3.29,0,0,1,3.06-3.59c1.74,0,2.72,1.25,2.72,3.2a3.91,3.91,0,0,1-.05.65h-4.59a2.26,2.26,0,0,0,2.26,2.38,3,3,0,0,0,1.7-.54l.41.75a4,4,0,0,1-2.25.71A3.26,3.26,0,0,1,241.31,230.29Zm4.76-.56c0-1.37-.61-2.11-1.68-2.11a2.09,2.09,0,0,0-1.95,2.11Z"/><path class="cls-5" d="M260.76,230.22a.39.39,0,0,1,.33-.14.49.49,0,0,1,.33.13.43.43,0,0,1,.14.35V234a.92.92,0,0,1-.94.94h-6.87a.94.94,0,0,1-.67-.27.92.92,0,0,1-.27-.67v-6.87a.94.94,0,0,1,.94-.94h5.78a.47.47,0,0,1,.33.8l-.31.31a.42.42,0,0,1-.33.14h-5.16v6.25h6.25v-2.81a.45.45,0,0,1,.14-.33Zm3.3-4.82a.42.42,0,0,0-.14-.33.45.45,0,0,0-.33-.14h-2.5a.47.47,0,0,0-.33.8l.7.71-4.76,4.74a.45.45,0,0,0-.14.33.49.49,0,0,0,.14.34l.45.44a.46.46,0,0,0,.66,0l4.75-4.76.7.7a.46.46,0,0,0,.66,0,.42.42,0,0,0,.14-.33Z"/></svg>